# Blender 4.0.2
# www.blender.org
mtllib test_scene_cornell.mtl
o CornellBox-Original
v -1.249784 0.000000 1.399957
v 1.237410 0.000000 1.399957
v 1.237410 -0.000000 -1.286907
v -1.225036 -0.000000 -1.286907
v -1.262158 2.462446 1.399956
v -1.262158 2.462446 -1.286907
v 1.237410 2.462446 -1.286907
v 1.237410 2.462446 1.399956
v -1.225036 -0.000000 -1.286907
v 1.237410 -0.000000 -1.286907
v 1.237410 2.462446 -1.286907
v -1.262158 2.462446 -1.286907
v 1.237410 -0.000000 -1.286907
v 1.237410 0.000000 1.399957
v 1.237410 2.462446 1.399956
v 1.237410 2.462446 -1.286907
v -1.249784 0.000000 1.399957
v -1.225036 -0.000000 -1.286907
v -1.262158 2.462446 -1.286907
v -1.262158 2.462446 1.399956
v 0.655827 0.742446 0.928058
v 0.866187 0.742446 0.210360
v 0.160863 0.742446 -0.000000
v -0.061871 0.742446 0.705324
v -0.061871 0.000000 0.705324
v -0.061871 0.742446 0.705324
v 0.160863 0.742446 -0.000000
v 0.160863 0.000000 0.000000
v 0.655827 0.000000 0.928058
v 0.655827 0.742446 0.928058
v -0.061871 0.742446 0.705324
v -0.061871 0.000000 0.705324
v 0.866187 0.000000 0.210360
v 0.866187 0.742446 0.210360
v 0.655827 0.742446 0.928058
v 0.655827 0.000000 0.928058
v 0.160863 0.000000 0.000000
v 0.160863 0.742446 -0.000000
v 0.866187 0.742446 0.210360
v 0.866187 0.000000 0.210360
v -0.655827 1.484892 0.111367
v 0.049496 1.484892 -0.111367
v -0.173237 1.484892 -0.829065
v -0.878561 1.484892 -0.606331
v -0.655827 0.000000 0.111367
v -0.655827 1.484892 0.111367
v -0.878561 1.484892 -0.606331
v -0.878561 -0.000000 -0.606331
v -0.878561 -0.000000 -0.606331
v -0.878561 1.484892 -0.606331
v -0.173237 1.484892 -0.829065
v -0.173237 -0.000000 -0.829065
v -0.173237 -0.000000 -0.829065
v -0.173237 1.484892 -0.829065
v 0.049496 1.484892 -0.111367
v 0.049496 -0.000000 -0.111367
v 0.049496 -0.000000 -0.111367
v 0.049496 1.484892 -0.111367
v -0.655827 1.484892 0.111367
v -0.655827 0.000000 0.111367
v -0.296978 2.450072 0.197985
v -0.296978 2.450072 -0.272230
v 0.284604 2.450072 -0.272230
v 0.284604 2.450072 0.197985
v 0.066576 1.274583 0.208631
v 0.066576 2.080475 0.208631
v 0.388231 1.274583 -0.530287
v 0.388231 2.080475 -0.530286
v 0.805493 1.274583 0.530286
v 0.805493 2.080475 0.530286
v 1.127149 1.274583 -0.208631
v 1.127149 2.080475 -0.208631
vn -0.0000 1.0000 -0.0000
vn -0.0000 -1.0000 -0.0000
vn -0.0000 -0.0000 1.0000
vn -1.0000 -0.0000 -0.0000
vn 0.9999 0.0100 0.0046
vn -0.9536 -0.0000 -0.3011
vn -0.2964 -0.0000 0.9551
vn 0.2858 -0.0000 -0.9583
vn 0.9596 -0.0000 0.2813
vn -0.9551 -0.0000 0.2964
vn -0.3011 -0.0000 -0.9536
vn 0.9551 -0.0000 -0.2964
vn 0.3011 -0.0000 0.9536
vn -0.9169 -0.0000 -0.3991
vn 0.3991 -0.0000 -0.9169
vn 0.9169 -0.0000 0.3991
vn -0.3991 -0.0000 0.9169
vt 0.000000 0.000000
vt 0.375000 0.000000
vt 0.625000 0.000000
vt 0.625000 0.250000
vt 0.375000 0.250000
vt 0.625000 0.500000
vt 0.375000 0.500000
vt 0.625000 0.750000
vt 0.375000 0.750000
vt 0.625000 1.000000
vt 0.375000 1.000000
vt 0.125000 0.500000
vt 0.125000 0.750000
vt 0.875000 0.500000
vt 0.875000 0.750000
s 0
usemtl Material.002
f 1/1/1 2/1/1 3/1/1 4/1/1
f 5/1/2 6/1/2 7/1/2 8/1/2
f 9/1/3 10/1/3 11/1/3 12/1/3
f 13/1/4 14/1/4 15/1/4 16/1/4
f 17/1/5 18/1/5 19/1/5 20/1/5
f 21/1/1 22/1/1 23/1/1 24/1/1
f 25/1/6 26/1/6 27/1/6 28/1/6
f 29/1/7 30/1/7 31/1/7 32/1/7
f 37/1/8 38/1/8 39/1/8 40/1/8
f 33/1/9 34/1/9 35/1/9 36/1/9
f 41/1/1 42/1/1 43/1/1 44/1/1
f 45/1/10 46/1/10 47/1/10 48/1/10
f 49/1/11 50/1/11 51/1/11 52/1/11
f 53/1/12 54/1/12 55/1/12 56/1/12
f 57/1/13 58/1/13 59/1/13 60/1/13
f 61/1/2 62/1/2 63/1/2 64/1/2
f 65/2/14 66/3/14 68/4/14 67/5/14
f 67/5/15 68/4/15 72/6/15 71/7/15
f 71/7/16 72/6/16 70/8/16 69/9/16
f 69/9/17 70/8/17 66/10/17 65/11/17
f 67/12/2 71/7/2 69/9/2 65/13/2
f 72/6/1 68/14/1 66/15/1 70/8/1
